<?xml version="1.0" encoding="utf-8"?>
<svg xmlns="http://www.w3.org/2000/svg" viewBox="0 0 128 128">
  <path fill-rule="evenodd" clip-rule="evenodd" fill="#3A4D54" d="M20 96.9v-8.1c0-1.1.7-1.9 1.8-1.9h.3c1.1 0 1.8.9 1.8 1.9v17c0 4.1-2.3 7.8-5.9 9.7-1.9 1-3.9 1.5-6 1.5-2.2 0-4.3-.5-6.2-1.5-3.6-1.9-5.8-5.6-5.8-9.7v-17c0-1.1.7-1.9 1.8-1.9h.3c1.1 0 1.8.9 1.8 1.9v8.1c0 2.8 1.3 5.3 3.5 7 1.1.8 2.2 1.2 3.4 1.2 1.2 0 2.3-.4 3.4-1.2 2.2-1.6 3.5-4.2 3.5-7zm29.7-8.1c0-1.1.7-1.9 1.8-1.9h.3c1.1 0 1.8.9 1.8 1.9v17c0 4.1-2.3 7.8-5.9 9.7-1.9 1-3.9 1.5-6 1.5-2.2 0-4.3-.5-6.2-1.5-3.6-1.9-5.8-5.6-5.8-9.7v-17c0-1.1.7-1.9 1.8-1.9h.3c1.1 0 1.8.9 1.8 1.9v8.1c0 2.8 1.3 5.3 3.5 7 1.1.8 2.2 1.2 3.4 1.2 1.2 0 2.3-.4 3.4-1.2 2.2-1.6 3.5-4.2 3.5-7v-8.1h2.3zm19.6 0c0-1.1.7-1.9 1.8-1.9h.3c1.1 0 1.8.9 1.8 1.9v17c0 4.1-2.3 7.8-5.9 9.7-1.9 1-3.9 1.5-6 1.5-2.2 0-4.3-.5-6.2-1.5-3.6-1.9-5.8-5.6-5.8-9.7v-17c0-1.1.7-1.9 1.8-1.9h.3c1.1 0 1.8.9 1.8 1.9v8.1c0 2.8 1.3 5.3 3.5 7 1.1.8 2.2 1.2 3.4 1.2 1.2 0 2.3-.4 3.4-1.2 2.2-1.6 3.5-4.2 3.5-7v-8.1h2.3z"/>
  <path fill="#00AADA" d="M110.4 37.1l-1.8-1.5c-3.5-2.7-8.6-2.7-12.1 0l-1.8 1.5c-.1.1-.2.1-.2.2l-1.8 1.5c-3.5 2.7-8.6 2.7-12.1 0l-1.8-1.5c-.1-.1-.2-.1-.2-.2l-1.8-1.5c-3.5-2.7-8.6-2.7-12.1 0l-1.8 1.5c-.1.1-.2.1-.2.2l-1.8 1.5c-3.5 2.7-8.6 2.7-12.1 0l-1.8-1.5c-.1-.1-.2-.1-.2-.2l-1.8-1.5c-3.5-2.7-8.6-2.7-12.1 0l-1.8 1.5c-.1.1-.2.1-.2.2l-1.8 1.5c-3.5 2.7-8.6 2.7-12.1 0l-1.8-1.5c-.1-.1-.2-.1-.2-.2L8.4 35.6c-3.5-2.7-8.6-2.7-12.1 0l-1.8 1.5c-.1.1-.2.1-.2.2l-1.8 1.5c-3.5 2.7-8.6 2.7-12.1 0l-1.8-1.5"/>
  <path fill="#28B8EB" d="M110.4 37.1l-1.8-1.5c-3.5-2.7-8.6-2.7-12.1 0l-1.8 1.5c-.1.1-.2.1-.2.2l-1.8 1.5c-3.5 2.7-8.6 2.7-12.1 0l-1.8-1.5c-.1-.1-.2-.1-.2-.2l-1.8-1.5c-3.5-2.7-8.6-2.7-12.1 0l-1.8 1.5c-.1.1-.2.1-.2.2l-1.8 1.5c-3.5 2.7-8.6 2.7-12.1 0l-1.8-1.5c-.1-.1-.2-.1-.2-.2l-1.8-1.5c-3.5-2.7-8.6-2.7-12.1 0l-1.8 1.5c-.1.1-.2.1-.2.2l-1.8 1.5c-3.5 2.7-8.6 2.7-12.1 0l-1.8-1.5c-.1-.1-.2-.1-.2-.2L8.4 35.6c-3.5-2.7-8.6-2.7-12.1 0l-1.8 1.5c-.1.1-.2.1-.2.2l-1.8 1.5c-3.5 2.7-8.6 2.7-12.1 0l-1.8-1.5"/>
  <path fill="#028BB8" d="M110.4 41.9l-1.8-1.5c-3.5-2.7-8.6-2.7-12.1 0l-1.8 1.5c-.1.1-.2.1-.2.2l-1.8 1.5c-3.5 2.7-8.6 2.7-12.1 0l-1.8-1.5c-.1-.1-.2-.1-.2-.2l-1.8-1.5c-3.5-2.7-8.6-2.7-12.1 0l-1.8 1.5c-.1.1-.2.1-.2.2l-1.8 1.5c-3.5 2.7-8.6 2.7-12.1 0l-1.8-1.5c-.1-.1-.2-.1-.2-.2l-1.8-1.5c-3.5-2.7-8.6-2.7-12.1 0l-1.8 1.5c-.1.1-.2.1-.2.2l-1.8 1.5c-3.5 2.7-8.6 2.7-12.1 0l-1.8-1.5c-.1-.1-.2-.1-.2-.2L8.4 40.4c-3.5-2.7-8.6-2.7-12.1 0l-1.8 1.5c-.1.1-.2.1-.2.2l-1.8 1.5c-3.5 2.7-8.6 2.7-12.1 0l-1.8-1.5"/>
  <path fill="#019BC6" d="M110.4 41.9l-1.8-1.5c-3.5-2.7-8.6-2.7-12.1 0l-1.8 1.5c-.1.1-.2.1-.2.2l-1.8 1.5c-3.5 2.7-8.6 2.7-12.1 0l-1.8-1.5c-.1-.1-.2-.1-.2-.2l-1.8-1.5c-3.5-2.7-8.6-2.7-12.1 0l-1.8 1.5c-.1.1-.2.1-.2.2l-1.8 1.5c-3.5 2.7-8.6 2.7-12.1 0l-1.8-1.5c-.1-.1-.2-.1-.2-.2l-1.8-1.5c-3.5-2.7-8.6-2.7-12.1 0l-1.8 1.5c-.1.1-.2.1-.2.2l-1.8 1.5c-3.5 2.7-8.6 2.7-12.1 0l-1.8-1.5c-.1-.1-.2-.1-.2-.2L8.4 40.4c-3.5-2.7-8.6-2.7-12.1 0l-1.8 1.5c-.1.1-.2.1-.2.2l-1.8 1.5c-3.5 2.7-8.6 2.7-12.1 0l-1.8-1.5"/>
</svg>
