<?xml version="1.0" encoding="utf-8"?>
<svg xmlns="http://www.w3.org/2000/svg" viewBox="0 0 128 128">
  <path fill="#4B32C3" d="M63.953.001a12.422 12.422 0 00-10.762 6.215L6.405 89.789a12.421 12.421 0 00.001 12.43l46.786 83.573a12.421 12.421 0 0010.761 6.215h93.572a12.421 12.421 0 0010.761-6.215l46.786-83.573a12.421 12.421 0 00.001-12.43L168.287 6.216A12.421 12.421 0 00157.526.001H63.953zm0 12.422h93.573L204.312 96l-46.786 83.573H63.953L17.167 96 63.953 12.423z"/>
  <path fill="#8080F2" d="M63.953 24.845a12.422 12.422 0 00-10.762 6.215L17.167 96l36.024 64.94a12.421 12.421 0 0010.761 6.215h93.572a12.421 12.421 0 0010.761-6.215L204.312 96l-36.024-64.94a12.421 12.421 0 00-10.761-6.215H63.953zm0 12.422h93.573L193.55 96l-36.024 64.94H63.953L27.929 96l36.024-64.733z"/>
</svg>
